<svg width="60" height="60" viewBox="0 0 60 60" fill="none" xmlns="http://www.w3.org/2000/svg">
<path d="M29.9987 5.81145e-07V33.1672L43.4981 37.7793L48.5388 60L29.9987 48.0924L11.4585 60L16.4993 37.7793L0 22.918L21.6556 21.0924L29.9987 5.81145e-07Z" fill="#00A3FF"/>
<path d="M60 22.918L43.5007 37.7793L30.0013 33.1672L38.3444 21.0924L60 22.918Z" fill="#00A3FF"/>
<path d="M30 0V33.1672L21.6556 21.0924L0 22.918L30 33.1672L16.4993 37.7793L11.4585 60L30 33.1672V48.0924L48.541 60L30 33.1672L43.5007 37.7793L60 22.918L30 33.1672L38.3444 21.0924L30 0Z" fill="#94D9FF"/>
<path d="M30 0V33.1672L21.6556 21.0924L0 22.918L30 33.1672L16.4993 37.7793L11.4585 60L30 33.1672V48.0924L48.541 60L30 33.1672L43.5007 37.7793L60 22.918L30 33.1672L38.3444 21.0924L30 0Z" fill="#94D9FF"/>
</svg>
