<svg width="61" height="60" viewBox="0 0 61 60" fill="none" xmlns="http://www.w3.org/2000/svg">
<path d="M30.609 0.000885591V33.1681L44.1084 37.7802L49.1492 60.0009L30.609 48.0933L12.0688 60.0009L17.1096 37.7802L0.610352 22.9188L22.2659 21.0933L30.609 0.000885591Z" fill="#2970FE"/>
<path d="M60.6104 22.9188L44.1111 37.7802L30.6117 33.1681L38.9548 21.0933L60.6104 22.9188Z" fill="#2970FE"/>
<path d="M30.6104 0.00088501V33.1681L22.2659 21.0933L0.610352 22.9188L30.6104 33.1681L17.1096 37.7802L12.0688 60.0009L30.6104 33.1681V48.0933L49.1514 60.0009L30.6104 33.1681L44.1111 37.7802L60.6104 22.9188L30.6104 33.1681L38.9548 21.0933L30.6104 0.00088501Z" fill="#CCDDFF"/>
<path d="M30.6104 0.00088501V33.1681L22.2659 21.0933L0.610352 22.9188L30.6104 33.1681L17.1096 37.7802L12.0688 60.0009L30.6104 33.1681V48.0933L49.1514 60.0009L30.6104 33.1681L44.1111 37.7802L60.6104 22.9188L30.6104 33.1681L38.9548 21.0933L30.6104 0.00088501Z" fill="#CCDDFF"/>
</svg>
