<svg width="672" height="458" viewBox="0 0 672 458" fill="none" xmlns="http://www.w3.org/2000/svg">
<rect x="369.792" width="127.887" height="68.9625" rx="34.4812" transform="rotate(3.98477 369.792 0)" fill="#5597AF"/>
<path d="M390.049 52.5158L391.766 27.8674L398.602 28.3436L396.885 52.992L390.049 52.5158ZM395.422 24.9293C394.405 24.8585 393.557 24.4608 392.876 23.7361C392.207 23.0015 391.906 22.1582 391.972 21.206C392.038 20.2646 392.453 19.4819 393.216 18.8578C393.991 18.2238 394.887 17.9422 395.903 18.013C396.92 18.0838 397.762 18.4865 398.432 19.2211C399.112 19.9458 399.42 20.7788 399.354 21.7202C399.288 22.6724 398.867 23.4654 398.092 24.0994C397.328 24.7235 396.438 25.0001 395.422 24.9293ZM410.19 39.5998L409.198 53.8497L402.361 53.3735L404.078 28.7251L410.594 29.1789L410.291 33.5277L410.579 33.5478C411.225 32.1523 412.219 31.082 413.561 30.337C414.903 29.5813 416.489 29.2671 418.319 29.3946C420.03 29.5138 421.497 29.9922 422.717 30.8297C423.938 31.6673 424.853 32.806 425.463 34.246C426.073 35.6752 426.311 37.3473 426.177 39.2623L425.084 54.9564L418.248 54.4802L419.256 40.0056C419.372 38.498 419.069 37.2943 418.347 36.3948C417.626 35.4845 416.58 34.9817 415.211 34.8863C414.291 34.8222 413.464 34.9635 412.73 35.3102C412.007 35.6576 411.422 36.1972 410.973 36.9292C410.536 37.6513 410.275 38.5415 410.19 39.5998ZM445.3 31.5965L444.942 36.7316L430.098 35.6976L430.456 30.5625L445.3 31.5965ZM434.237 24.8919L441.073 25.3681L439.473 48.3476C439.429 48.9788 439.491 49.4777 439.659 49.8441C439.827 50.1999 440.078 50.4592 440.411 50.6221C440.754 50.7858 441.156 50.8836 441.616 50.9157C441.937 50.938 442.259 50.9337 442.584 50.9025C442.909 50.8607 443.159 50.8297 443.332 50.8095L444.053 55.9714C443.703 56.0545 443.213 56.144 442.583 56.2398C441.952 56.3464 441.192 56.3848 440.301 56.355C438.65 56.3044 437.221 55.9845 436.015 55.3953C434.819 54.8068 433.916 53.9591 433.305 52.8523C432.694 51.7455 432.451 50.3848 432.574 48.7701L434.237 24.8919ZM458.874 57.7939C456.381 57.6203 454.263 56.9406 452.518 55.7548C450.784 54.559 449.492 52.9747 448.64 51.0019C447.789 49.0184 447.452 46.7642 447.628 44.2395C447.805 41.6933 448.452 39.5024 449.569 37.6667C450.687 35.8203 452.186 34.4305 454.068 33.4974C455.961 32.5542 458.154 32.1695 460.647 32.3431C463.14 32.5168 465.253 33.2015 466.986 34.3972C468.731 35.583 470.029 37.1677 470.88 39.1512C471.731 41.124 472.068 43.3835 471.891 45.9297C471.715 48.4544 471.068 50.64 469.951 52.4864C468.834 54.3221 467.329 55.7115 465.436 56.6546C463.554 57.5878 461.367 57.9675 458.874 57.7939ZM459.275 52.5006C460.409 52.5796 461.378 52.3246 462.182 51.7356C462.987 51.1359 463.622 50.2879 464.085 49.1914C464.559 48.0957 464.846 46.831 464.946 45.3975C465.046 43.9639 464.937 42.6717 464.619 41.5209C464.312 40.3707 463.802 39.4429 463.088 38.7374C462.374 38.0319 461.45 37.6397 460.316 37.5607C459.171 37.481 458.185 37.7402 457.359 38.3384C456.543 38.9373 455.898 39.7846 455.424 40.8803C454.961 41.9768 454.679 43.2418 454.579 44.6754C454.48 46.1089 454.583 47.4007 454.89 48.5509C455.208 49.7017 455.729 50.6303 456.454 51.3365C457.19 52.0328 458.13 52.4208 459.275 52.5006Z" fill="#141414"/>
<rect x="6" y="247.076" width="196.798" height="57.5994" rx="28.7997" transform="rotate(-9.67554 6 247.076)" fill="#FEDCC9"/>
<path d="M55.4935 268.173C55.9951 271.115 55.8642 273.713 55.1007 275.967C54.346 278.219 53.1042 280.053 51.3753 281.469C49.6538 282.874 47.603 283.779 45.2229 284.185C42.8254 284.594 40.5809 284.416 38.4894 283.652C36.398 282.888 34.623 281.568 33.1646 279.693C31.7062 277.818 30.7269 275.414 30.2268 272.481C29.7252 269.539 29.8517 266.941 30.6064 264.689C31.3611 262.436 32.5993 260.607 34.3208 259.202C36.0409 257.788 38.0998 256.877 40.4974 256.468C42.8774 256.062 45.1131 256.242 47.2045 257.006C49.3033 257.759 51.0818 259.074 52.5403 260.949C54.0075 262.823 54.9919 265.231 55.4935 268.173ZM49.7104 269.159C49.3854 267.253 48.826 265.694 48.0321 264.483C47.2469 263.271 46.2829 262.414 45.1401 261.913C43.9972 261.412 42.7364 261.279 41.3576 261.514C39.9788 261.749 38.8332 262.292 37.921 263.143C37.0087 263.995 36.3787 265.123 36.031 266.529C35.692 267.934 35.685 269.589 36.0099 271.495C36.3349 273.4 36.8899 274.96 37.6751 276.172C38.469 277.384 39.4374 278.24 40.5802 278.741C41.7231 279.242 42.9839 279.375 44.3627 279.14C45.7415 278.905 46.8871 278.361 47.7993 277.51C48.7116 276.659 49.3372 275.531 49.6761 274.126C50.0239 272.72 50.0353 271.065 49.7104 269.159ZM61.9134 280.96L58.4636 260.725L63.9042 259.798L64.5062 263.328L64.717 263.292C64.8717 261.974 65.3291 260.92 66.0893 260.13C66.8479 259.332 67.7937 258.837 68.9266 258.643C69.2077 258.595 69.5137 258.561 69.8446 258.541C70.1755 258.521 70.4692 258.52 70.7256 258.54L71.5746 263.52C71.2976 263.485 70.9212 263.477 70.4452 263.495C69.9693 263.513 69.5381 263.555 69.1517 263.621C68.3261 263.762 67.6191 264.067 67.0306 264.538C66.4494 264.999 66.0239 265.578 65.754 266.274C65.493 266.97 65.4328 267.73 65.5736 268.555L67.5254 280.003L61.9134 280.96ZM83.6631 277.591C82.1261 277.853 80.6668 277.695 79.2849 277.117C77.9104 276.529 76.7268 275.524 75.7344 274.103C74.7492 272.671 74.0642 270.827 73.6794 268.57C73.2841 266.251 73.3287 264.26 73.8131 262.596C74.2961 260.923 75.0916 259.599 76.1996 258.623C77.315 257.638 78.6147 257.019 80.099 256.766C81.2319 256.573 82.2089 256.605 83.0301 256.862C83.8585 257.11 84.5542 257.479 85.1169 257.971C85.687 258.452 86.1414 258.944 86.4802 259.446L86.6514 259.417L84.922 249.274L90.5207 248.319L95.1205 275.298L89.5877 276.242L89.0352 273.001L88.798 273.041C88.6304 273.648 88.3522 274.27 87.9635 274.905C87.5821 275.531 87.0401 276.089 86.3374 276.579C85.6435 277.068 84.7521 277.405 83.6631 277.591ZM84.6801 272.822C85.5847 272.667 86.3068 272.291 86.8465 271.693C87.3935 271.085 87.7575 270.304 87.9385 269.352C88.1283 268.397 88.1206 267.319 87.9154 266.115C87.7103 264.912 87.3653 263.896 86.8803 263.066C86.3953 262.235 85.7955 261.633 85.0808 261.258C84.3662 260.882 83.5565 260.772 82.6519 260.926C81.7298 261.083 80.9952 261.466 80.4483 262.074C79.9013 262.683 79.5409 263.458 79.3672 264.401C79.1935 265.343 79.2062 266.398 79.4054 267.566C79.606 268.743 79.9459 269.756 80.4251 270.605C80.9115 271.444 81.51 272.065 82.2204 272.468C82.938 272.861 83.7579 272.979 84.6801 272.822ZM99.7346 274.512L96.2847 254.277L101.897 253.32L105.346 273.555L99.7346 274.512ZM98.6591 251.188C97.8248 251.33 97.0619 251.176 96.3703 250.724C95.6861 250.263 95.2773 249.641 95.1441 248.859C95.0123 248.086 95.1935 247.373 95.6876 246.72C96.1889 246.056 96.8568 245.653 97.6911 245.51C98.5254 245.368 99.2847 245.528 99.969 245.99C100.66 246.441 101.072 247.053 101.204 247.826C101.337 248.608 101.153 249.331 100.652 249.994C100.158 250.648 99.4934 251.046 98.6591 251.188ZM113.459 260.134L115.454 271.832L109.842 272.788L106.392 252.554L111.741 251.642L112.349 255.212L112.586 255.172C112.834 253.919 113.426 252.86 114.363 251.995C115.298 251.121 116.517 250.557 118.019 250.301C119.424 250.061 120.702 250.159 121.852 250.596C123.001 251.033 123.964 251.772 124.738 252.815C125.511 253.849 126.031 255.152 126.299 256.724L128.496 269.608L122.884 270.565L120.858 258.682C120.655 257.443 120.175 256.53 119.415 255.946C118.654 255.353 117.712 255.152 116.588 255.344C115.832 255.472 115.193 255.749 114.668 256.172C114.153 256.595 113.786 257.145 113.567 257.824C113.356 258.493 113.32 259.263 113.459 260.134ZM138.754 268.252C137.463 268.472 136.274 268.445 135.188 268.169C134.1 267.884 133.186 267.349 132.447 266.562C131.714 265.765 131.234 264.699 131.007 263.364C130.815 262.24 130.86 261.261 131.143 260.426C131.425 259.592 131.883 258.881 132.515 258.295C133.147 257.708 133.895 257.219 134.759 256.828C135.632 256.435 136.561 256.105 137.545 255.837C138.701 255.514 139.63 255.238 140.332 255.01C141.033 254.773 141.527 254.517 141.815 254.242C142.102 253.967 142.209 253.614 142.136 253.184L142.122 253.105C141.98 252.271 141.607 251.67 141.002 251.303C140.406 250.935 139.629 250.832 138.672 250.995C137.662 251.168 136.897 251.529 136.376 252.078C135.853 252.619 135.553 253.24 135.473 253.94L130.211 254.404C130.265 253.129 130.602 251.978 131.222 250.951C131.84 249.914 132.719 249.051 133.857 248.359C135.003 247.658 136.384 247.169 138 246.894C139.124 246.702 140.222 246.651 141.295 246.739C142.376 246.826 143.363 247.078 144.257 247.495C145.159 247.91 145.917 248.513 146.531 249.303C147.143 250.084 147.552 251.077 147.757 252.28L150.084 265.928L144.762 266.835L144.283 264.029L144.125 264.056C143.908 264.744 143.568 265.375 143.106 265.951C142.643 266.518 142.052 267.003 141.334 267.406C140.615 267.799 139.755 268.082 138.754 268.252ZM139.701 264.105C140.526 263.965 141.227 263.678 141.804 263.245C142.38 262.804 142.8 262.271 143.064 261.648C143.328 261.024 143.4 260.357 143.278 259.645L142.912 257.498C142.756 257.642 142.532 257.789 142.241 257.938C141.958 258.076 141.634 258.218 141.27 258.361C140.904 258.496 140.538 258.626 140.171 258.752C139.802 258.869 139.468 258.976 139.168 259.072C138.526 259.281 137.977 259.533 137.521 259.827C137.065 260.122 136.731 260.472 136.521 260.879C136.308 261.277 136.247 261.739 136.337 262.266C136.467 263.03 136.843 263.567 137.465 263.876C138.095 264.176 138.84 264.252 139.701 264.105ZM154.438 265.185L150.988 244.951L156.428 244.023L157.03 247.554L157.241 247.518C157.396 246.199 157.853 245.145 158.613 244.356C159.372 243.557 160.318 243.062 161.451 242.869C161.732 242.821 162.038 242.787 162.369 242.766C162.7 242.746 162.993 242.746 163.25 242.765L164.099 247.745C163.822 247.711 163.445 247.703 162.969 247.72C162.493 247.738 162.062 247.78 161.676 247.846C160.85 247.987 160.143 248.293 159.555 248.764C158.973 249.224 158.548 249.803 158.278 250.5C158.017 251.195 157.957 251.955 158.098 252.781L160.049 264.228L154.438 265.185ZM174.991 269.49C174.279 269.611 173.602 269.667 172.959 269.66C172.327 269.659 171.794 269.61 171.362 269.512L171.912 265.107C172.605 265.197 173.217 265.205 173.747 265.133C174.285 265.059 174.725 264.858 175.067 264.528C175.417 264.198 175.661 263.695 175.799 263.021L175.983 262.108L165.176 242.532L171.077 241.526L177.8 255.671L178.011 255.635L179.706 240.054L185.647 239.042L181.605 262.804C181.413 263.957 181.061 264.993 180.549 265.912C180.047 266.838 179.342 267.604 178.433 268.211C177.526 268.827 176.378 269.253 174.991 269.49Z" fill="#141414"/>
<rect x="68" y="30.7108" width="197.736" height="73.912" rx="36.956" transform="rotate(-6.5952 68 30.7108)" fill="#FFDFDF"/>
<path d="M105.782 81.1612L97.863 82.0768L105.888 45.73L115.411 44.629L131.501 78.1876L123.582 79.1032L111.709 53.1507L111.436 53.1823L105.782 81.1612ZM103.698 67.4801L122.403 65.3175L123.07 71.0859L104.365 73.2485L103.698 67.4801ZM141.089 61.7216L142.841 76.8765L135.571 77.717L132.54 51.5032L139.469 50.7021L140.004 55.3271L140.311 55.2916C140.715 53.6999 141.548 52.3814 142.811 51.3361C144.072 50.2794 145.676 49.6386 147.621 49.4137C149.442 49.2032 151.075 49.4179 152.521 50.0578C153.967 50.6977 155.151 51.7138 156.073 53.106C156.993 54.4869 157.572 56.1956 157.807 58.2322L159.737 74.923L152.467 75.7636L150.687 60.3698C150.513 58.7643 149.958 57.5601 149.024 56.7573C148.088 55.9431 146.892 55.6202 145.436 55.7886C144.457 55.9017 143.617 56.2122 142.915 56.72C142.224 57.2265 141.715 57.9079 141.387 58.7644C141.069 59.6082 140.97 60.5939 141.089 61.7216ZM165.467 74.2605L162.436 48.0467L169.706 47.2061L172.737 73.4199L165.467 74.2605ZM165.697 44.2453C164.617 44.3703 163.648 44.1191 162.791 43.4918C161.945 42.8518 161.463 42.0255 161.346 41.0129C161.23 40.0116 161.512 39.1086 162.191 38.3036C162.881 37.486 163.766 37.0147 164.847 36.8898C165.928 36.7648 166.892 37.0223 167.738 37.6624C168.595 38.2897 169.081 39.104 169.196 40.1052C169.314 41.1178 169.027 42.0329 168.338 42.8505C167.658 43.6554 166.778 44.1204 165.697 44.2453ZM178.561 72.7466L175.53 46.5328L182.459 45.7317L182.994 50.3566L183.301 50.3211C183.669 48.722 184.44 47.4051 185.611 46.3703C186.783 45.3355 188.256 44.7155 190.031 44.5103C191.829 44.3025 193.411 44.575 194.778 45.3278C196.143 46.0692 197.125 47.1779 197.722 48.6538L197.995 48.6222C198.356 47.0585 199.184 45.7464 200.48 44.6858C201.785 43.6125 203.4 42.9646 205.322 42.7423C207.769 42.4595 209.844 43.0093 211.549 44.3918C213.264 45.7615 214.286 47.8686 214.614 50.713L216.653 68.3424L209.4 69.181L207.527 52.9851C207.359 51.5288 206.846 50.4813 205.988 49.8426C205.13 49.2039 204.121 48.9516 202.96 49.0858C201.64 49.2384 200.659 49.7784 200.017 50.7058C199.374 51.6219 199.131 52.7626 199.289 54.1279L201.14 70.1361L194.091 70.951L192.201 54.6015C192.052 53.3158 191.564 52.3346 190.736 51.6578C189.92 50.9797 188.915 50.7097 187.72 50.8479C186.912 50.9413 186.208 51.2302 185.607 51.7148C185.015 52.1867 184.574 52.8084 184.283 53.58C183.99 54.3402 183.9 55.2038 184.012 56.1709L185.831 71.906L178.561 72.7466ZM234.401 66.8092C231.705 67.121 229.321 66.8432 227.249 65.9759C225.187 65.0959 223.516 63.7095 222.237 61.8167C220.956 59.9126 220.156 57.5781 219.836 54.8134C219.524 52.1169 219.774 49.6899 220.585 47.5323C221.396 45.3747 222.686 43.6171 224.455 42.2597C226.235 40.901 228.41 40.0729 230.982 39.7757C232.711 39.5757 234.353 39.6683 235.908 40.0535C237.473 40.426 238.877 41.0996 240.119 42.0743C241.373 43.0477 242.41 44.3344 243.229 45.9346C244.047 47.5233 244.585 49.4327 244.842 51.6627L245.073 53.6595L222.938 56.2187L222.417 51.7132L237.709 49.9452C237.588 48.8985 237.253 47.9975 236.705 47.2423C236.156 46.4871 235.452 45.9287 234.591 45.567C233.741 45.1926 232.787 45.0666 231.728 45.1889C230.625 45.3165 229.676 45.6856 228.882 46.2963C228.098 46.8942 227.516 47.6475 227.137 48.5561C226.756 49.4532 226.62 50.4202 226.729 51.4568L227.224 55.7405C227.374 57.0375 227.742 58.1306 228.33 59.0197C228.928 59.9074 229.7 60.556 230.647 60.9654C231.594 61.3748 232.676 61.5091 233.893 61.3683C234.701 61.2749 235.427 61.0757 236.072 60.7705C236.717 60.4653 237.252 60.0576 237.678 59.5472C238.103 59.0369 238.402 58.4373 238.576 57.7484L245.352 57.4147C245.197 59.0698 244.661 60.5615 243.742 61.8899C242.833 63.2055 241.587 64.295 240.004 65.1584C238.43 66.009 236.563 66.5593 234.401 66.8092Z" fill="#141414"/>
<rect x="484.471" y="168" width="164.672" height="72.8908" rx="36.4454" transform="rotate(8.2594 484.471 168)" fill="#FDEEFF"/>
<path d="M502.257 225.598L507.304 190.828L530.733 194.229L529.853 200.29L513.775 197.956L512.573 206.241L527.445 208.4L526.565 214.461L511.693 212.302L510.488 220.604L526.633 222.948L525.754 229.009L502.257 225.598ZM540.942 231.647C538.961 231.359 537.241 230.59 535.782 229.338C534.336 228.076 533.287 226.381 532.637 224.253C532 222.114 531.892 219.591 532.314 216.682C532.748 213.694 533.59 211.28 534.839 209.439C536.091 207.586 537.586 206.283 539.324 205.53C541.076 204.768 542.909 204.525 544.821 204.803C546.281 205.015 547.462 205.44 548.363 206.08C549.277 206.709 549.981 207.436 550.474 208.258C550.98 209.071 551.34 209.852 551.555 210.6L551.776 210.632L553.674 197.559L560.889 198.606L555.842 233.376L548.711 232.341L549.318 228.165L549.012 228.12C548.567 228.796 547.982 229.444 547.256 230.067C546.543 230.68 545.66 231.147 544.608 231.468C543.568 231.791 542.345 231.851 540.942 231.647ZM544.069 226.224C545.235 226.393 546.266 226.219 547.162 225.702C548.07 225.175 548.823 224.366 549.421 223.274C550.03 222.183 550.447 220.863 550.672 219.312C550.897 217.762 550.878 216.384 550.613 215.178C550.349 213.972 549.855 212.999 549.13 212.258C548.406 211.518 547.461 211.063 546.295 210.893C545.106 210.721 544.058 210.898 543.149 211.425C542.241 211.952 541.494 212.756 540.909 213.839C540.325 214.921 539.923 216.215 539.705 217.72C539.484 219.237 539.499 220.609 539.749 221.835C540.011 223.052 540.497 224.047 541.205 224.82C541.926 225.584 542.881 226.052 544.069 226.224ZM561.788 234.24L565.574 208.162L572.806 209.212L569.021 235.289L561.788 234.24ZM569.695 205.328C568.62 205.172 567.749 204.681 567.083 203.857C566.43 203.022 566.176 202.101 566.322 201.094C566.467 200.098 566.97 199.298 567.832 198.695C568.707 198.083 569.682 197.854 570.757 198.01C571.832 198.167 572.697 198.662 573.35 199.496C574.016 200.321 574.277 201.231 574.132 202.227C573.986 203.235 573.475 204.045 572.601 204.657C571.739 205.26 570.77 205.484 569.695 205.328ZM592.471 212.066L591.682 217.499L575.978 215.22L576.766 209.787L592.471 212.066ZM581.239 204.056L588.471 205.106L584.942 229.418C584.845 230.086 584.871 230.621 585.021 231.025C585.172 231.416 585.418 231.712 585.759 231.912C586.111 232.113 586.53 232.249 587.017 232.32C587.356 232.369 587.7 232.39 588.048 232.383C588.397 232.364 588.665 232.351 588.851 232.343L589.207 237.89C588.829 237.951 588.3 238.007 587.623 238.059C586.943 238.122 586.131 238.103 585.187 238C583.434 237.815 581.94 237.361 580.704 236.639C579.48 235.918 578.587 234.944 578.025 233.719C577.463 232.493 577.312 231.027 577.571 229.319L581.239 204.056ZM617.473 223.289L610.793 222.735C610.761 222.153 610.592 221.608 610.284 221.101C609.978 220.583 609.539 220.143 608.967 219.783C608.409 219.413 607.71 219.167 606.873 219.046C605.752 218.883 604.773 218.983 603.934 219.347C603.097 219.699 602.622 220.266 602.509 221.047C602.418 221.669 602.591 222.232 603.026 222.734C603.462 223.237 604.266 223.706 605.44 224.142L610.021 225.778C612.481 226.667 614.25 227.779 615.327 229.114C616.405 230.449 616.807 232.056 616.534 233.935C616.286 235.644 615.565 237.071 614.37 238.215C613.187 239.36 611.671 240.169 609.823 240.64C607.988 241.102 605.938 241.168 603.675 240.84C600.222 240.339 597.576 239.221 595.736 237.486C593.909 235.741 593.001 233.599 593.012 231.058L600.18 231.717C600.242 232.801 600.646 233.68 601.392 234.354C602.139 235.018 603.158 235.443 604.448 235.63C605.716 235.814 606.77 235.719 607.61 235.344C608.463 234.959 608.952 234.377 609.077 233.598C609.161 232.94 608.962 232.362 608.479 231.864C607.998 231.355 607.208 230.905 606.109 230.515L601.724 228.959C599.251 228.08 597.484 226.922 596.421 225.485C595.37 224.05 594.985 222.359 595.268 220.412C595.511 218.737 596.173 217.359 597.255 216.28C598.347 215.202 599.767 214.455 601.515 214.038C603.274 213.623 605.269 213.577 607.498 213.901C610.792 214.379 613.283 215.451 614.971 217.118C616.67 218.786 617.504 220.843 617.473 223.289Z" fill="#141414"/>
<rect x="358" y="344" width="313.378" height="60.1259" rx="30.063" fill="#8EA7FF"/>
<path d="M379.102 359.452H386.562L394.441 378.675H394.776L402.655 359.452H410.115V388.063H404.248V369.441H404.01L396.606 387.923H392.611L385.207 369.371H384.969V388.063H379.102V359.452ZM421.106 388.468C419.737 388.468 418.517 388.231 417.446 387.756C416.375 387.271 415.528 386.559 414.904 385.618C414.289 384.668 413.982 383.485 413.982 382.07C413.982 380.878 414.2 379.876 414.638 379.066C415.076 378.256 415.672 377.604 416.426 377.11C417.181 376.617 418.038 376.244 418.997 375.993C419.965 375.741 420.981 375.564 422.042 375.462C423.29 375.331 424.296 375.21 425.06 375.099C425.824 374.978 426.378 374.801 426.722 374.568C427.067 374.335 427.239 373.99 427.239 373.534V373.45C427.239 372.565 426.96 371.881 426.401 371.397C425.852 370.912 425.069 370.67 424.054 370.67C422.983 370.67 422.131 370.908 421.498 371.383C420.864 371.848 420.445 372.435 420.24 373.143L414.736 372.696C415.015 371.392 415.565 370.265 416.384 369.315C417.204 368.356 418.261 367.62 419.556 367.108C420.86 366.586 422.368 366.325 424.082 366.325C425.274 366.325 426.415 366.465 427.505 366.744C428.604 367.024 429.577 367.457 430.424 368.044C431.281 368.63 431.956 369.385 432.45 370.307C432.944 371.22 433.191 372.314 433.191 373.59V388.063H427.547V385.087H427.379C427.034 385.758 426.573 386.349 425.996 386.861C425.418 387.364 424.725 387.76 423.914 388.049C423.104 388.328 422.168 388.468 421.106 388.468ZM422.811 384.361C423.686 384.361 424.459 384.189 425.13 383.844C425.8 383.49 426.327 383.015 426.708 382.419C427.09 381.823 427.281 381.148 427.281 380.393V378.116C427.095 378.237 426.839 378.349 426.513 378.451C426.196 378.545 425.838 378.633 425.437 378.717C425.037 378.791 424.636 378.861 424.236 378.926C423.835 378.982 423.472 379.034 423.146 379.08C422.447 379.183 421.837 379.346 421.316 379.569C420.794 379.793 420.389 380.095 420.1 380.477C419.812 380.85 419.667 381.315 419.667 381.874C419.667 382.684 419.961 383.304 420.548 383.732C421.144 384.151 421.898 384.361 422.811 384.361ZM455.661 372.724L450.213 373.059C450.12 372.593 449.92 372.174 449.612 371.802C449.305 371.42 448.9 371.117 448.397 370.894C447.903 370.661 447.312 370.544 446.623 370.544C445.701 370.544 444.923 370.74 444.29 371.131C443.656 371.513 443.34 372.025 443.34 372.668C443.34 373.18 443.545 373.613 443.955 373.967C444.364 374.321 445.067 374.605 446.064 374.819L449.948 375.602C452.034 376.03 453.589 376.719 454.614 377.669C455.638 378.619 456.15 379.867 456.15 381.413C456.15 382.819 455.736 384.053 454.907 385.115C454.088 386.177 452.961 387.006 451.526 387.602C450.101 388.189 448.458 388.482 446.595 388.482C443.754 388.482 441.491 387.891 439.805 386.708C438.129 385.516 437.146 383.895 436.858 381.846L442.711 381.539C442.888 382.405 443.317 383.066 443.996 383.523C444.676 383.97 445.547 384.193 446.609 384.193C447.652 384.193 448.49 383.993 449.123 383.592C449.766 383.183 450.092 382.656 450.101 382.014C450.092 381.474 449.864 381.031 449.417 380.687C448.97 380.333 448.281 380.063 447.349 379.876L443.633 379.136C441.538 378.717 439.978 377.99 438.953 376.957C437.938 375.923 437.43 374.605 437.43 373.003C437.43 371.625 437.803 370.437 438.548 369.441C439.302 368.444 440.36 367.676 441.719 367.136C443.088 366.595 444.69 366.325 446.525 366.325C449.235 366.325 451.368 366.898 452.923 368.044C454.488 369.189 455.401 370.749 455.661 372.724ZM471.312 366.605V371.075H458.389V366.605H471.312ZM461.323 361.464H467.274V381.469C467.274 382.019 467.358 382.447 467.526 382.754C467.693 383.052 467.926 383.262 468.224 383.383C468.531 383.504 468.885 383.565 469.286 383.565C469.565 383.565 469.845 383.541 470.124 383.495C470.403 383.439 470.618 383.397 470.767 383.369L471.703 387.797C471.405 387.891 470.986 387.998 470.445 388.119C469.905 388.249 469.249 388.328 468.476 388.356C467.041 388.412 465.784 388.221 464.704 387.784C463.633 387.346 462.799 386.666 462.203 385.744C461.607 384.822 461.314 383.658 461.323 382.251V361.464ZM484.737 388.482C482.53 388.482 480.63 388.035 479.037 387.141C477.454 386.237 476.234 384.962 475.377 383.313C474.52 381.655 474.092 379.695 474.092 377.432C474.092 375.224 474.52 373.287 475.377 371.62C476.234 369.953 477.44 368.654 478.995 367.722C480.56 366.791 482.395 366.325 484.499 366.325C485.915 366.325 487.233 366.554 488.453 367.01C489.682 367.457 490.753 368.132 491.666 369.036C492.588 369.939 493.305 371.075 493.817 372.444C494.33 373.804 494.586 375.397 494.586 377.222V378.857H476.467V375.168H488.984C488.984 374.312 488.798 373.553 488.425 372.891C488.052 372.23 487.536 371.713 486.874 371.341C486.222 370.959 485.463 370.768 484.597 370.768C483.694 370.768 482.893 370.977 482.194 371.397C481.505 371.806 480.965 372.36 480.574 373.059C480.183 373.748 479.982 374.517 479.973 375.364V378.871C479.973 379.932 480.169 380.85 480.56 381.623C480.96 382.396 481.524 382.992 482.25 383.411C482.977 383.83 483.838 384.04 484.835 384.04C485.496 384.04 486.101 383.946 486.651 383.76C487.2 383.574 487.671 383.294 488.062 382.922C488.453 382.549 488.751 382.093 488.956 381.553L494.46 381.916C494.181 383.239 493.608 384.393 492.742 385.381C491.885 386.359 490.777 387.122 489.417 387.672C488.066 388.212 486.506 388.482 484.737 388.482ZM498.47 388.063V366.605H504.239V370.349H504.463C504.854 369.017 505.51 368.011 506.432 367.331C507.355 366.642 508.416 366.297 509.618 366.297C509.916 366.297 510.237 366.316 510.582 366.353C510.926 366.391 511.229 366.442 511.49 366.507V371.788C511.21 371.704 510.824 371.629 510.33 371.564C509.837 371.499 509.385 371.466 508.975 371.466C508.1 371.466 507.317 371.657 506.628 372.039C505.948 372.412 505.408 372.933 505.008 373.604C504.616 374.274 504.421 375.047 504.421 375.923V388.063H498.47ZM514.567 396.11V366.605H520.434V370.209H520.699C520.96 369.632 521.337 369.045 521.831 368.449C522.334 367.843 522.986 367.341 523.787 366.94C524.597 366.53 525.603 366.325 526.804 366.325C528.369 366.325 529.813 366.735 531.135 367.555C532.458 368.365 533.515 369.59 534.306 371.229C535.098 372.859 535.494 374.903 535.494 377.362C535.494 379.755 535.107 381.776 534.334 383.425C533.571 385.064 532.528 386.307 531.205 387.155C529.892 387.993 528.42 388.412 526.79 388.412C525.636 388.412 524.653 388.221 523.843 387.839C523.042 387.458 522.385 386.978 521.873 386.4C521.361 385.814 520.97 385.222 520.699 384.626H520.518V396.11H514.567ZM520.392 377.334C520.392 378.61 520.569 379.723 520.923 380.673C521.277 381.623 521.789 382.363 522.46 382.894C523.13 383.416 523.945 383.676 524.905 383.676C525.873 383.676 526.693 383.411 527.363 382.88C528.034 382.34 528.541 381.595 528.886 380.645C529.24 379.685 529.417 378.582 529.417 377.334C529.417 376.095 529.245 375.005 528.9 374.065C528.555 373.124 528.048 372.388 527.377 371.858C526.707 371.327 525.882 371.061 524.905 371.061C523.936 371.061 523.116 371.317 522.446 371.83C521.785 372.342 521.277 373.068 520.923 374.009C520.569 374.95 520.392 376.058 520.392 377.334ZM539.461 388.063V366.605H545.413V388.063H539.461ZM542.451 363.839C541.566 363.839 540.807 363.545 540.174 362.959C539.55 362.363 539.238 361.65 539.238 360.821C539.238 360.002 539.55 359.298 540.174 358.712C540.807 358.116 541.566 357.818 542.451 357.818C543.336 357.818 544.09 358.116 544.714 358.712C545.347 359.298 545.664 360.002 545.664 360.821C545.664 361.65 545.347 362.363 544.714 362.959C544.09 363.545 543.336 363.839 542.451 363.839ZM559.959 388.482C557.752 388.482 555.852 388.035 554.259 387.141C552.676 386.237 551.456 384.962 550.599 383.313C549.742 381.655 549.314 379.695 549.314 377.432C549.314 375.224 549.742 373.287 550.599 371.62C551.456 369.953 552.662 368.654 554.217 367.722C555.782 366.791 557.617 366.325 559.722 366.325C561.137 366.325 562.455 366.554 563.675 367.01C564.905 367.457 565.976 368.132 566.888 369.036C567.81 369.939 568.527 371.075 569.04 372.444C569.552 373.804 569.808 375.397 569.808 377.222V378.857H551.689V375.168H564.206C564.206 374.312 564.02 373.553 563.647 372.891C563.275 372.23 562.758 371.713 562.097 371.341C561.445 370.959 560.686 370.768 559.819 370.768C558.916 370.768 558.115 370.977 557.417 371.397C556.727 371.806 556.187 372.36 555.796 373.059C555.405 373.748 555.205 374.517 555.195 375.364V378.871C555.195 379.932 555.391 380.85 555.782 381.623C556.182 382.396 556.746 382.992 557.472 383.411C558.199 383.83 559.06 384.04 560.057 384.04C560.718 384.04 561.324 383.946 561.873 383.76C562.422 383.574 562.893 383.294 563.284 382.922C563.675 382.549 563.973 382.093 564.178 381.553L569.682 381.916C569.403 383.239 568.83 384.393 567.964 385.381C567.107 386.359 565.999 387.122 564.639 387.672C563.289 388.212 561.729 388.482 559.959 388.482ZM583.387 388.482C581.189 388.482 579.298 388.016 577.715 387.085C576.141 386.144 574.93 384.84 574.083 383.173C573.245 381.506 572.826 379.588 572.826 377.418C572.826 375.22 573.249 373.292 574.097 371.634C574.954 369.967 576.169 368.668 577.743 367.736C579.317 366.796 581.189 366.325 583.359 366.325C585.231 366.325 586.87 366.665 588.277 367.345C589.683 368.025 590.796 368.98 591.615 370.209C592.435 371.438 592.887 372.882 592.971 374.54H587.355C587.196 373.469 586.777 372.607 586.097 371.955C585.427 371.294 584.547 370.963 583.457 370.963C582.535 370.963 581.729 371.215 581.04 371.718C580.36 372.211 579.829 372.933 579.447 373.883C579.066 374.833 578.875 375.983 578.875 377.334C578.875 378.703 579.061 379.867 579.433 380.826C579.815 381.786 580.351 382.517 581.04 383.02C581.729 383.523 582.535 383.774 583.457 383.774C584.137 383.774 584.747 383.634 585.287 383.355C585.836 383.076 586.288 382.67 586.642 382.14C587.005 381.599 587.243 380.952 587.355 380.198H592.971C592.877 381.837 592.43 383.28 591.629 384.528C590.838 385.767 589.743 386.736 588.346 387.434C586.949 388.133 585.296 388.482 583.387 388.482ZM606.56 388.482C604.353 388.482 602.453 388.035 600.86 387.141C599.277 386.237 598.057 384.962 597.2 383.313C596.343 381.655 595.915 379.695 595.915 377.432C595.915 375.224 596.343 373.287 597.2 371.62C598.057 369.953 599.263 368.654 600.818 367.722C602.383 366.791 604.218 366.325 606.323 366.325C607.738 366.325 609.056 366.554 610.276 367.01C611.505 367.457 612.576 368.132 613.489 369.036C614.411 369.939 615.128 371.075 615.641 372.444C616.153 373.804 616.409 375.397 616.409 377.222V378.857H598.29V375.168H610.807C610.807 374.312 610.621 373.553 610.248 372.891C609.876 372.23 609.359 371.713 608.697 371.341C608.045 370.959 607.286 370.768 606.42 370.768C605.517 370.768 604.716 370.977 604.017 371.397C603.328 371.806 602.788 372.36 602.397 373.059C602.006 373.748 601.805 374.517 601.796 375.364V378.871C601.796 379.932 601.992 380.85 602.383 381.623C602.783 382.396 603.347 382.992 604.073 383.411C604.8 383.83 605.661 384.04 606.658 384.04C607.319 384.04 607.924 383.946 608.474 383.76C609.023 383.574 609.494 383.294 609.885 382.922C610.276 382.549 610.574 382.093 610.779 381.553L616.283 381.916C616.004 383.239 615.431 384.393 614.565 385.381C613.708 386.359 612.6 387.122 611.24 387.672C609.89 388.212 608.33 388.482 606.56 388.482ZM638.146 372.724L632.698 373.059C632.605 372.593 632.405 372.174 632.097 371.802C631.79 371.42 631.385 371.117 630.882 370.894C630.388 370.661 629.797 370.544 629.108 370.544C628.186 370.544 627.408 370.74 626.775 371.131C626.141 371.513 625.825 372.025 625.825 372.668C625.825 373.18 626.03 373.613 626.44 373.967C626.849 374.321 627.552 374.605 628.549 374.819L632.433 375.602C634.519 376.03 636.074 376.719 637.099 377.669C638.123 378.619 638.635 379.867 638.635 381.413C638.635 382.819 638.221 384.053 637.392 385.115C636.573 386.177 635.446 387.006 634.011 387.602C632.586 388.189 630.943 388.482 629.08 388.482C626.239 388.482 623.976 387.891 622.29 386.708C620.614 385.516 619.631 383.895 619.343 381.846L625.196 381.539C625.373 382.405 625.802 383.066 626.481 383.523C627.161 383.97 628.032 384.193 629.094 384.193C630.137 384.193 630.975 383.993 631.608 383.592C632.251 383.183 632.577 382.656 632.586 382.014C632.577 381.474 632.349 381.031 631.902 380.687C631.455 380.333 630.766 380.063 629.834 379.876L626.118 379.136C624.023 378.717 622.463 377.99 621.438 376.957C620.423 375.923 619.915 374.605 619.915 373.003C619.915 371.625 620.288 370.437 621.033 369.441C621.787 368.444 622.845 367.676 624.204 367.136C625.573 366.595 627.175 366.325 629.01 366.325C631.72 366.325 633.853 366.898 635.408 368.044C636.973 369.189 637.886 370.749 638.146 372.724ZM649.494 359.452L648.949 379.485H643.836L643.277 359.452H649.494ZM646.392 388.426C645.47 388.426 644.679 388.1 644.017 387.448C643.356 386.787 643.03 385.995 643.04 385.073C643.03 384.161 643.356 383.378 644.017 382.726C644.679 382.074 645.47 381.748 646.392 381.748C647.277 381.748 648.055 382.074 648.725 382.726C649.396 383.378 649.736 384.161 649.745 385.073C649.736 385.688 649.573 386.251 649.256 386.764C648.949 387.267 648.544 387.672 648.041 387.979C647.538 388.277 646.988 388.426 646.392 388.426Z" fill="#141414"/>
<rect y="396.552" width="306.671" height="61.557" rx="30.7785" transform="rotate(-3.46821 0 396.552)" fill="#FFDF8E"/>
<path d="M21.6349 416.094L21.3225 410.939L45.611 409.467L45.9234 414.622L36.8694 415.171L38.3493 439.589L32.1689 439.964L30.689 415.545L21.6349 416.094ZM48.9845 438.945L47.6403 416.765L53.6041 416.403L53.8387 420.273L54.0697 420.259C54.3906 418.858 55.0063 417.777 55.9168 417.017C56.8266 416.246 57.9025 415.824 59.1444 415.749C59.4524 415.73 59.7857 415.729 60.1443 415.746C60.5028 415.763 60.8189 415.797 61.0925 415.848L61.4233 421.306C61.1293 421.237 60.7251 421.184 60.2108 421.148C59.6965 421.111 59.2275 421.106 58.8039 421.132C57.899 421.187 57.1023 421.433 56.4138 421.871C55.7344 422.298 55.2087 422.871 54.8368 423.59C54.4745 424.307 54.3207 425.118 54.3756 426.023L55.1361 438.572L48.9845 438.945ZM71.3382 438.01C69.923 438.096 68.647 437.927 67.5102 437.503C66.3728 437.07 65.4521 436.386 64.7482 435.453C64.0533 434.51 63.6615 433.306 63.5728 431.843C63.4981 430.611 63.6617 429.562 64.0634 428.697C64.4651 427.832 65.0403 427.121 65.7892 426.564C66.538 426.006 67.4004 425.567 68.3762 425.247C69.3616 424.927 70.3999 424.68 71.4909 424.508C72.7727 424.295 73.8048 424.107 74.5872 423.943C75.3691 423.77 75.9308 423.553 76.2724 423.29C76.614 423.028 76.7705 422.661 76.7419 422.19L76.7367 422.103C76.6812 421.188 76.3495 420.498 75.7416 420.033C75.1433 419.567 74.3194 419.365 73.2701 419.429C72.163 419.496 71.2971 419.795 70.6722 420.325C70.0467 420.846 69.6503 421.479 69.4828 422.224L63.7654 422.106C63.9725 420.741 64.4699 419.542 65.2575 418.509C66.0446 417.466 67.0911 416.639 68.3972 416.028C69.7123 415.408 71.2555 415.043 73.0268 414.936C74.2591 414.861 75.4471 414.934 76.5909 415.155C77.7444 415.375 78.7775 415.762 79.6903 416.315C80.6128 416.868 81.358 417.605 81.926 418.527C82.4934 419.44 82.817 420.556 82.897 421.874L83.8036 436.835L77.9698 437.188L77.7834 434.112L77.6101 434.123C77.2959 434.838 76.8564 435.478 76.2916 436.043C75.7263 436.599 75.0339 437.052 74.2144 437.401C73.3944 437.741 72.4356 437.944 71.3382 438.01ZM72.8426 433.658C73.7475 433.603 74.5358 433.377 75.2073 432.979C75.8783 432.571 76.3924 432.047 76.7498 431.407C77.1071 430.767 77.2622 430.057 77.2149 429.277L77.0723 426.923C76.8873 427.06 76.6296 427.192 76.2991 427.318C75.9776 427.434 75.6125 427.548 75.2038 427.66C74.7945 427.762 74.3849 427.859 73.9751 427.952C73.5646 428.034 73.1924 428.11 72.8583 428.179C72.1428 428.328 71.5224 428.535 70.9973 428.799C70.4722 429.063 70.0724 429.401 69.7979 429.814C69.5228 430.217 69.4028 430.707 69.4378 431.285C69.4885 432.122 69.8306 432.744 70.4639 433.15C71.1063 433.546 71.8992 433.715 72.8426 433.658ZM93.9505 423.35L94.7277 436.173L88.5761 436.545L87.2319 414.365L93.0946 414.01L93.3318 417.923L93.5917 417.907C94.0045 416.588 94.7658 415.517 95.8755 414.696C96.9846 413.866 98.3623 413.401 100.008 413.301C101.549 413.208 102.912 413.463 104.099 414.068C105.285 414.672 106.234 415.581 106.945 416.794C107.656 417.997 108.063 419.46 108.168 421.184L109.024 435.306L102.872 435.679L102.083 422.654C102.01 421.296 101.599 420.258 100.85 419.54C100.101 418.812 99.1101 418.486 97.8779 418.561C97.05 418.611 96.3291 418.833 95.7153 419.228C95.1112 419.622 94.6517 420.172 94.3369 420.877C94.0312 421.572 93.9024 422.396 93.9505 423.35ZM131.366 418.038L125.755 418.726C125.629 418.251 125.396 417.83 125.055 417.464C124.714 417.089 124.276 416.801 123.742 416.602C123.217 416.392 122.599 416.309 121.886 416.352C120.933 416.41 120.142 416.661 119.511 417.105C118.881 417.539 118.586 418.088 118.626 418.753C118.658 419.282 118.897 419.717 119.343 420.057C119.788 420.397 120.533 420.647 121.576 420.806L125.64 421.371C127.823 421.683 129.474 422.298 130.592 423.216C131.711 424.134 132.318 425.392 132.415 426.99C132.503 428.443 132.152 429.745 131.362 430.894C130.581 432.043 129.469 432.97 128.023 433.676C126.587 434.372 124.906 434.778 122.981 434.895C120.045 435.073 117.668 434.603 115.852 433.486C114.044 432.359 112.927 430.746 112.5 428.646L118.532 427.961C118.769 428.846 119.253 429.502 119.984 429.931C120.715 430.351 121.629 430.527 122.727 430.461C123.805 430.396 124.659 430.136 125.288 429.683C125.927 429.219 126.231 428.654 126.2 427.989C126.157 427.432 125.893 426.989 125.41 426.661C124.925 426.323 124.196 426.087 123.222 425.953L119.334 425.42C117.142 425.118 115.484 424.465 114.36 423.461C113.246 422.456 112.639 421.125 112.539 419.469C112.452 418.045 112.763 416.794 113.471 415.717C114.188 414.64 115.232 413.779 116.604 413.136C117.985 412.492 119.624 412.112 121.521 411.997C124.322 411.827 126.563 412.286 128.242 413.372C129.931 414.459 130.972 416.014 131.366 418.038ZM147.289 410.725L147.569 415.346L133.88 416.176L133.6 411.555L147.289 410.725ZM138.077 433.545L136.636 409.762C136.539 408.154 136.771 406.802 137.332 405.705C137.903 404.608 138.722 403.761 139.787 403.165C140.852 402.569 142.083 402.229 143.479 402.144C144.422 402.087 145.288 402.107 146.077 402.204C146.875 402.301 147.47 402.395 147.862 402.487L147.045 407.175C146.799 407.112 146.497 407.058 146.136 407.012C145.786 406.966 145.427 406.954 145.062 406.976C144.157 407.031 143.539 407.281 143.208 407.726C142.877 408.162 142.735 408.755 142.78 409.506L144.214 433.173L138.077 433.545ZM161.645 432.552C159.402 432.688 157.433 432.329 155.739 431.475C154.053 430.611 152.716 429.349 151.727 427.689C150.736 426.019 150.173 424.049 150.035 421.777C149.896 419.486 150.217 417.456 150.999 415.689C151.781 413.912 152.956 412.498 154.525 411.446C156.103 410.384 158.014 409.785 160.257 409.65C162.5 409.514 164.464 409.878 166.149 410.742C167.844 411.596 169.186 412.857 170.176 414.527C171.166 416.187 171.73 418.162 171.869 420.453C172.006 422.725 171.684 424.75 170.903 426.527C170.121 428.294 168.941 429.708 167.363 430.77C165.794 431.822 163.888 432.416 161.645 432.552ZM161.385 427.785C162.405 427.723 163.24 427.382 163.888 426.763C164.536 426.135 165.003 425.304 165.288 424.273C165.583 423.24 165.691 422.079 165.613 420.789C165.535 419.499 165.287 418.359 164.87 417.37C164.462 416.38 163.899 415.613 163.179 415.067C162.46 414.521 161.591 414.279 160.57 414.341C159.54 414.403 158.691 414.749 158.024 415.379C157.367 416.008 156.891 416.839 156.596 417.872C156.31 418.904 156.207 420.064 156.285 421.354C156.363 422.644 156.606 423.784 157.014 424.774C157.431 425.763 158.004 426.531 158.733 427.076C159.471 427.611 160.355 427.847 161.385 427.785ZM176.535 431.215L175.191 409.034L181.155 408.673L181.39 412.543L181.621 412.529C181.941 411.128 182.557 410.047 183.468 409.286C184.377 408.516 185.453 408.093 186.695 408.018C187.003 408 187.337 407.999 187.695 408.016C188.054 408.032 188.37 408.066 188.643 408.118L188.974 413.576C188.68 413.507 188.276 413.454 187.762 413.418C187.247 413.381 186.778 413.376 186.355 413.401C185.45 413.456 184.653 413.703 183.965 414.14C183.285 414.568 182.76 415.141 182.388 415.859C182.025 416.577 181.872 417.388 181.926 418.293L182.687 430.842L176.535 431.215ZM193.174 430.206L191.83 408.026L197.693 407.671L197.93 411.584L198.19 411.568C198.573 410.24 199.281 409.169 200.314 408.352C201.346 407.536 202.614 407.082 204.116 406.991C205.637 406.899 206.954 407.201 208.069 407.897C209.183 408.583 209.957 409.56 210.392 410.829L210.623 410.815C210.998 409.516 211.755 408.451 212.893 407.619C214.04 406.776 215.427 406.306 217.054 406.207C219.124 406.082 220.844 406.639 222.214 407.88C223.593 409.111 224.355 410.929 224.501 413.336L225.405 428.253L219.268 428.625L218.437 414.921C218.363 413.689 217.979 412.784 217.287 412.208C216.595 411.631 215.758 411.373 214.776 411.432C213.66 411.5 212.81 411.909 212.227 412.659C211.644 413.4 211.388 414.348 211.458 415.503L212.279 429.048L206.315 429.41L205.476 415.576C205.41 414.488 205.045 413.641 204.38 413.034C203.725 412.426 202.892 412.153 201.881 412.214C201.198 412.255 200.592 412.466 200.064 412.846C199.546 413.215 199.146 413.718 198.866 414.353C198.585 414.979 198.469 415.701 198.519 416.519L199.326 429.833L193.174 430.206ZM230.264 427.958L228.92 405.778L235.071 405.405L236.416 427.585L230.264 427.958ZM231.837 402.732C230.922 402.787 230.119 402.531 229.428 401.964C228.745 401.387 228.378 400.671 228.326 399.814C228.275 398.967 228.553 398.22 229.162 397.575C229.779 396.919 230.545 396.563 231.459 396.508C232.374 396.452 233.172 396.713 233.855 397.29C234.546 397.857 234.918 398.564 234.969 399.411C235.021 400.268 234.738 401.024 234.121 401.68C233.513 402.326 232.751 402.676 231.837 402.732ZM246.718 414.091L247.495 426.914L241.343 427.287L239.999 405.107L245.862 404.751L246.099 408.665L246.359 408.649C246.772 407.329 247.533 406.259 248.643 405.438C249.752 404.607 251.129 404.142 252.776 404.042C254.316 403.949 255.679 404.205 256.866 404.809C258.052 405.413 259.001 406.322 259.712 407.535C260.423 408.738 260.83 410.202 260.935 411.925L261.791 426.048L255.639 426.42L254.85 413.395C254.777 412.037 254.366 410.999 253.618 410.281C252.868 409.554 251.877 409.227 250.645 409.302C249.817 409.352 249.096 409.575 248.482 409.969C247.878 410.364 247.419 410.913 247.104 411.618C246.798 412.313 246.67 413.137 246.718 414.091ZM277.164 433.928C275.171 434.049 273.446 433.878 271.988 433.415C270.54 432.962 269.369 432.294 268.475 431.411C267.581 430.528 266.973 429.511 266.652 428.362L272.295 427.252C272.495 427.684 272.795 428.081 273.194 428.444C273.592 428.806 274.107 429.084 274.737 429.278C275.377 429.48 276.145 429.555 277.04 429.5C278.379 429.419 279.461 429.025 280.288 428.318C281.125 427.62 281.497 426.51 281.405 424.989L281.159 420.932L280.899 420.947C280.667 421.58 280.298 422.187 279.792 422.768C279.286 423.349 278.62 423.839 277.794 424.237C276.968 424.635 275.967 424.87 274.793 424.941C273.127 425.042 271.588 424.748 270.174 424.061C268.77 423.364 267.615 422.24 266.709 420.691C265.813 419.132 265.29 417.125 265.141 414.67C264.989 412.158 265.271 410.034 265.987 408.3C266.703 406.566 267.715 405.238 269.021 404.319C270.337 403.398 271.809 402.889 273.436 402.79C274.678 402.715 275.73 402.864 276.594 403.237C277.456 403.6 278.162 404.079 278.71 404.674C279.267 405.258 279.703 405.84 280.019 406.42L280.25 406.406L280.024 402.681L286.132 402.311L287.489 424.707C287.604 426.594 287.237 428.201 286.39 429.528C285.543 430.855 284.32 431.885 282.722 432.62C281.135 433.363 279.282 433.799 277.164 433.928ZM276.462 420.202C277.454 420.142 278.277 419.845 278.93 419.313C279.593 418.77 280.079 418.026 280.389 417.079C280.708 416.123 280.828 414.995 280.749 413.695C280.671 412.396 280.419 411.28 279.996 410.349C279.572 409.409 278.997 408.695 278.272 408.207C277.547 407.72 276.688 407.506 275.697 407.566C274.686 407.628 273.85 407.954 273.191 408.544C272.53 409.126 272.051 409.908 271.753 410.892C271.455 411.877 271.344 412.999 271.421 414.261C271.499 415.541 271.744 416.637 272.157 417.549C272.578 418.451 273.146 419.137 273.861 419.606C274.584 420.064 275.452 420.263 276.462 420.202Z" fill="#141414"/>
</svg>
